<svg xmlns="http://www.w3.org/2000/svg" xmlns:xlink="http://www.w3.org/1999/xlink" width="2000" zoomAndPan="magnify" viewBox="0 0 1500 1499.999933" height="2000" preserveAspectRatio="xMidYMid meet" version="1.0"><path fill="#973878" d="M 1476.5625 750 C 1476.5625 348.632812 1151.367188 23.4375 750 23.4375 C 348.632812 23.4375 23.4375 348.632812 23.4375 750 C 23.4375 1112.636719 289.132812 1413.222656 636.472656 1467.773438 L 636.472656 960.027344 L 451.902344 960.027344 L 451.902344 750 L 636.472656 750 L 636.472656 589.921875 C 636.472656 407.839844 744.871094 307.265625 910.898438 307.265625 C 990.410156 307.265625 1073.554688 321.445312 1073.554688 321.445312 L 1073.554688 500.15625 L 981.914062 500.15625 C 891.679688 500.15625 863.523438 556.171875 863.523438 613.621094 L 863.523438 750 L 1065.027344 750 L 1032.800781 960.027344 L 863.523438 960.027344 L 863.523438 1467.773438 C 1210.867188 1413.222656 1476.5625 1112.636719 1476.5625 750 Z M 1476.5625 750 " fill-opacity="1" fill-rule="nonzero"/></svg>