<svg xmlns="http://www.w3.org/2000/svg" xmlns:xlink="http://www.w3.org/1999/xlink" width="2000" zoomAndPan="magnify" viewBox="0 0 1500 1499.999933" height="2000" preserveAspectRatio="xMidYMid meet" version="1.0"><defs><clipPath id="77f234cb01"><path d="M 93.75 93 L 1406.25 93 L 1406.25 1407 L 93.75 1407 Z M 93.75 93 " clip-rule="nonzero"/></clipPath></defs><g clip-path="url(#77f234cb01)"><path fill="#973878" d="M 750.292969 413.085938 C 563.964844 413.085938 413.671875 563.378906 413.671875 749.707031 C 413.671875 936.035156 563.964844 1086.328125 750.292969 1086.328125 C 936.621094 1086.328125 1086.914062 936.035156 1086.914062 749.707031 C 1086.914062 563.378906 936.621094 413.085938 750.292969 413.085938 Z M 750.292969 968.554688 C 629.882812 968.554688 531.445312 870.410156 531.445312 749.707031 C 531.445312 629.003906 629.589844 530.859375 750.292969 530.859375 C 870.996094 530.859375 969.140625 629.003906 969.140625 749.707031 C 969.140625 870.410156 870.703125 968.554688 750.292969 968.554688 Z M 1179.199219 399.316406 C 1179.199219 442.96875 1144.042969 477.832031 1100.683594 477.832031 C 1057.03125 477.832031 1022.167969 442.675781 1022.167969 399.316406 C 1022.167969 355.957031 1057.324219 320.800781 1100.683594 320.800781 C 1144.042969 320.800781 1179.199219 355.957031 1179.199219 399.316406 Z M 1402.148438 479.003906 C 1397.167969 373.828125 1373.144531 280.664062 1296.09375 203.90625 C 1219.335938 127.148438 1126.171875 103.125 1020.996094 97.851562 C 912.597656 91.699219 587.695312 91.699219 479.296875 97.851562 C 374.414062 102.832031 281.25 126.855469 204.199219 203.613281 C 127.148438 280.371094 103.417969 373.535156 98.144531 478.710938 C 91.992188 587.109375 91.992188 912.011719 98.144531 1020.410156 C 103.125 1125.585938 127.148438 1218.75 204.199219 1295.507812 C 281.25 1372.265625 374.121094 1396.289062 479.296875 1401.5625 C 587.695312 1407.714844 912.597656 1407.714844 1020.996094 1401.5625 C 1126.171875 1396.582031 1219.335938 1372.558594 1296.09375 1295.507812 C 1372.851562 1218.75 1396.875 1125.585938 1402.148438 1020.410156 C 1408.300781 912.011719 1408.300781 587.402344 1402.148438 479.003906 Z M 1262.109375 1136.71875 C 1239.257812 1194.140625 1195.019531 1238.378906 1137.304688 1261.523438 C 1050.878906 1295.800781 845.800781 1287.890625 750.292969 1287.890625 C 654.785156 1287.890625 449.414062 1295.507812 363.28125 1261.523438 C 305.859375 1238.671875 261.621094 1194.433594 238.476562 1136.71875 C 204.199219 1050.292969 212.109375 845.214844 212.109375 749.707031 C 212.109375 654.199219 204.492188 448.828125 238.476562 362.695312 C 261.328125 305.273438 305.566406 261.035156 363.28125 237.890625 C 449.707031 203.613281 654.785156 211.523438 750.292969 211.523438 C 845.800781 211.523438 1051.171875 203.90625 1137.304688 237.890625 C 1194.726562 260.742188 1238.964844 304.980469 1262.109375 362.695312 C 1296.386719 449.121094 1288.476562 654.199219 1288.476562 749.707031 C 1288.476562 845.214844 1296.386719 1050.585938 1262.109375 1136.71875 Z M 1262.109375 1136.71875 " fill-opacity="1" fill-rule="nonzero"/></g></svg>